<mxfile host="app.diagrams.net" agent="Mozilla/5.0 (Windows NT 10.0; Win64; x64; rv:132.0) Gecko/20100101 Firefox/132.0" version="24.9.1">
  <diagram name="Page-1" id="A06JOczlqUr8We-DXeFm">
    <mxGraphModel dx="3352" dy="1503" grid="1" gridSize="10" guides="1" tooltips="1" connect="1" arrows="1" fold="1" page="1" pageScale="1" pageWidth="850" pageHeight="1100" math="0" shadow="0">
      <root>
        <mxCell id="0" />
        <mxCell id="1" parent="0" />
        <mxCell id="PSkL0Lyjn1JWyYJMr4O2-1" value="" style="rounded=0;whiteSpace=wrap;html=1;" vertex="1" parent="1">
          <mxGeometry x="60" y="220" width="730" height="500" as="geometry" />
        </mxCell>
        <mxCell id="3YO04BlYkrb-IJC3jJvu-2" value="&lt;div&gt;Home&lt;/div&gt;" style="ellipse;whiteSpace=wrap;html=1;aspect=fixed;fillColor=#f8cecc;strokeColor=#b85450;" parent="1" vertex="1">
          <mxGeometry x="385" y="390" width="80" height="80" as="geometry" />
        </mxCell>
        <mxCell id="3YO04BlYkrb-IJC3jJvu-3" value="&lt;div&gt;Sobre&lt;/div&gt;&lt;div&gt;nós&lt;br&gt;&lt;/div&gt;" style="ellipse;whiteSpace=wrap;html=1;aspect=fixed;fillColor=#dae8fc;strokeColor=#6c8ebf;" parent="1" vertex="1">
          <mxGeometry x="245" y="230" width="80" height="80" as="geometry" />
        </mxCell>
        <mxCell id="3YO04BlYkrb-IJC3jJvu-4" value="Contato" style="ellipse;whiteSpace=wrap;html=1;aspect=fixed;fillColor=#e1d5e7;strokeColor=#9673a6;" parent="1" vertex="1">
          <mxGeometry x="230" y="390" width="80" height="80" as="geometry" />
        </mxCell>
        <mxCell id="3YO04BlYkrb-IJC3jJvu-5" value="&lt;div&gt;Loja&lt;/div&gt;" style="ellipse;whiteSpace=wrap;html=1;aspect=fixed;fillColor=#ffe6cc;strokeColor=#d79b00;" parent="1" vertex="1">
          <mxGeometry x="385" y="520" width="80" height="80" as="geometry" />
        </mxCell>
        <mxCell id="3YO04BlYkrb-IJC3jJvu-6" value="Entrar" style="ellipse;whiteSpace=wrap;html=1;aspect=fixed;fillColor=#d5e8d4;strokeColor=#82b366;" parent="1" vertex="1">
          <mxGeometry x="540" y="390" width="80" height="80" as="geometry" />
        </mxCell>
        <mxCell id="3YO04BlYkrb-IJC3jJvu-9" value="" style="endArrow=classic;html=1;rounded=0;exitX=0;exitY=0.5;exitDx=0;exitDy=0;entryX=1;entryY=0.5;entryDx=0;entryDy=0;" parent="1" source="3YO04BlYkrb-IJC3jJvu-2" target="3YO04BlYkrb-IJC3jJvu-4" edge="1">
          <mxGeometry width="50" height="50" relative="1" as="geometry">
            <mxPoint x="280" y="600" as="sourcePoint" />
            <mxPoint x="330" y="550" as="targetPoint" />
          </mxGeometry>
        </mxCell>
        <mxCell id="3YO04BlYkrb-IJC3jJvu-10" value="" style="endArrow=classic;html=1;rounded=0;exitX=0.5;exitY=1;exitDx=0;exitDy=0;entryX=0.5;entryY=0;entryDx=0;entryDy=0;" parent="1" source="3YO04BlYkrb-IJC3jJvu-2" target="3YO04BlYkrb-IJC3jJvu-5" edge="1">
          <mxGeometry width="50" height="50" relative="1" as="geometry">
            <mxPoint x="300" y="580" as="sourcePoint" />
            <mxPoint x="350" y="530" as="targetPoint" />
          </mxGeometry>
        </mxCell>
        <mxCell id="3YO04BlYkrb-IJC3jJvu-11" value="" style="endArrow=classic;html=1;rounded=0;exitX=1;exitY=0.5;exitDx=0;exitDy=0;entryX=0;entryY=0.5;entryDx=0;entryDy=0;" parent="1" source="3YO04BlYkrb-IJC3jJvu-2" target="3YO04BlYkrb-IJC3jJvu-6" edge="1">
          <mxGeometry width="50" height="50" relative="1" as="geometry">
            <mxPoint x="470" y="540" as="sourcePoint" />
            <mxPoint x="520" y="490" as="targetPoint" />
          </mxGeometry>
        </mxCell>
        <mxCell id="3YO04BlYkrb-IJC3jJvu-12" value="" style="endArrow=classic;html=1;rounded=1;exitX=0;exitY=0.5;exitDx=0;exitDy=0;entryX=0.5;entryY=1;entryDx=0;entryDy=0;curved=0;" parent="1" source="3YO04BlYkrb-IJC3jJvu-2" target="3YO04BlYkrb-IJC3jJvu-3" edge="1">
          <mxGeometry width="50" height="50" relative="1" as="geometry">
            <mxPoint x="260" y="550" as="sourcePoint" />
            <mxPoint x="310" y="500" as="targetPoint" />
            <Array as="points">
              <mxPoint x="330" y="430" />
              <mxPoint x="330" y="330" />
              <mxPoint x="285" y="330" />
            </Array>
          </mxGeometry>
        </mxCell>
        <mxCell id="3YO04BlYkrb-IJC3jJvu-14" value="" style="shape=curlyBracket;whiteSpace=wrap;html=1;rounded=1;flipH=1;labelPosition=right;verticalLabelPosition=middle;align=left;verticalAlign=middle;" parent="1" vertex="1">
          <mxGeometry x="210" y="370" width="20" height="120" as="geometry" />
        </mxCell>
        <mxCell id="3YO04BlYkrb-IJC3jJvu-15" value="&lt;div align=&quot;left&quot;&gt;&lt;font style=&quot;font-size: 10px;&quot;&gt;O cliente tem acesso a formas de&amp;nbsp; entrar em contato com a loja&lt;/font&gt;&lt;/div&gt;" style="text;html=1;align=left;verticalAlign=middle;whiteSpace=wrap;rounded=0;" parent="1" vertex="1">
          <mxGeometry x="70" y="380" width="140" height="30" as="geometry" />
        </mxCell>
        <mxCell id="3YO04BlYkrb-IJC3jJvu-16" value="&lt;font style=&quot;font-size: 10px;&quot;&gt;Permitir o cliente mandar dúvidas sobre a empresa/site&lt;br&gt;&lt;/font&gt;" style="text;html=1;align=left;verticalAlign=middle;whiteSpace=wrap;rounded=0;" parent="1" vertex="1">
          <mxGeometry x="70" y="460" width="140" height="30" as="geometry" />
        </mxCell>
        <mxCell id="3YO04BlYkrb-IJC3jJvu-20" value="&lt;font style=&quot;font-size: 10px;&quot;&gt;Informações sobre a empresa&lt;/font&gt;" style="text;html=1;align=center;verticalAlign=middle;whiteSpace=wrap;rounded=0;" parent="1" vertex="1">
          <mxGeometry x="75" y="250" width="150" height="30" as="geometry" />
        </mxCell>
        <mxCell id="3YO04BlYkrb-IJC3jJvu-21" value="" style="shape=curlyBracket;whiteSpace=wrap;html=1;rounded=1;labelPosition=left;verticalLabelPosition=middle;align=right;verticalAlign=middle;" parent="1" vertex="1">
          <mxGeometry x="620" y="370" width="20" height="150" as="geometry" />
        </mxCell>
        <mxCell id="3YO04BlYkrb-IJC3jJvu-23" value="&lt;font size=&quot;1&quot;&gt;O cliente tem como criar uma conta ou entrar em uma conta já registrada no site&lt;br&gt;&lt;/font&gt;" style="text;html=1;align=center;verticalAlign=middle;whiteSpace=wrap;rounded=0;" parent="1" vertex="1">
          <mxGeometry x="640" y="370" width="140" height="30" as="geometry" />
        </mxCell>
        <mxCell id="3YO04BlYkrb-IJC3jJvu-24" value="&lt;font size=&quot;1&quot;&gt;Em caso de o usuário esquecer a senha ter uma forma de recuperar sua conta&lt;br&gt;&lt;/font&gt;" style="text;html=1;align=center;verticalAlign=middle;whiteSpace=wrap;rounded=0;" parent="1" vertex="1">
          <mxGeometry x="640" y="420" width="140" height="30" as="geometry" />
        </mxCell>
        <mxCell id="3YO04BlYkrb-IJC3jJvu-25" value="&lt;font size=&quot;1&quot;&gt;Permitir o usuário já registrado mudar informações como email/senha&lt;br&gt;&lt;/font&gt;" style="text;html=1;align=center;verticalAlign=middle;whiteSpace=wrap;rounded=0;" parent="1" vertex="1">
          <mxGeometry x="640" y="480" width="140" height="30" as="geometry" />
        </mxCell>
        <mxCell id="3YO04BlYkrb-IJC3jJvu-26" value="" style="shape=curlyBracket;whiteSpace=wrap;html=1;rounded=1;flipH=1;labelPosition=right;verticalLabelPosition=middle;align=left;verticalAlign=middle;rotation=-90;" parent="1" vertex="1">
          <mxGeometry x="417.5" y="397.5" width="20" height="430" as="geometry" />
        </mxCell>
        <mxCell id="3YO04BlYkrb-IJC3jJvu-27" value="&lt;font size=&quot;1&quot;&gt;Permitir o usuário já logado adicionar produtos ao carrinho e se em caso de não estiver logado direcionar o usuário para a página de login&lt;br&gt;&lt;/font&gt;" style="text;html=1;align=center;verticalAlign=middle;whiteSpace=wrap;rounded=0;" parent="1" vertex="1">
          <mxGeometry x="360" y="650" width="140" height="30" as="geometry" />
        </mxCell>
        <mxCell id="3YO04BlYkrb-IJC3jJvu-28" value="&lt;font size=&quot;1&quot;&gt;Mostrar para o cliente os produtos, podendo facilmente serem adicionados ao carrinho&lt;br&gt;&lt;/font&gt;" style="text;html=1;align=center;verticalAlign=middle;whiteSpace=wrap;rounded=0;" parent="1" vertex="1">
          <mxGeometry x="200" y="640" width="140" height="30" as="geometry" />
        </mxCell>
        <mxCell id="3YO04BlYkrb-IJC3jJvu-29" value="" style="shape=curlyBracket;whiteSpace=wrap;html=1;rounded=1;flipH=1;labelPosition=right;verticalLabelPosition=middle;align=left;verticalAlign=middle;" parent="1" vertex="1">
          <mxGeometry x="225" y="230" width="20" height="80" as="geometry" />
        </mxCell>
        <mxCell id="3YO04BlYkrb-IJC3jJvu-30" value="" style="shape=curlyBracket;whiteSpace=wrap;html=1;rounded=1;flipH=1;labelPosition=right;verticalLabelPosition=middle;align=left;verticalAlign=middle;rotation=90;size=0.5;" parent="1" vertex="1">
          <mxGeometry x="415" y="300" width="20" height="160" as="geometry" />
        </mxCell>
        <mxCell id="3YO04BlYkrb-IJC3jJvu-34" value="&lt;font size=&quot;1&quot;&gt;Mostrar para o cliente os produtos em destaque&lt;br&gt;&lt;/font&gt;" style="text;html=1;align=center;verticalAlign=middle;whiteSpace=wrap;rounded=0;" parent="1" vertex="1">
          <mxGeometry x="340" y="320" width="80" height="30" as="geometry" />
        </mxCell>
        <mxCell id="3YO04BlYkrb-IJC3jJvu-35" value="&lt;font size=&quot;1&quot;&gt;Permitir o usuário navegar para as diferentes páginas do site&lt;br&gt;&lt;/font&gt;" style="text;html=1;align=center;verticalAlign=middle;whiteSpace=wrap;rounded=0;" parent="1" vertex="1">
          <mxGeometry x="420" y="320" width="80" height="30" as="geometry" />
        </mxCell>
        <mxCell id="3YO04BlYkrb-IJC3jJvu-36" value="&lt;font size=&quot;1&quot;&gt;No carrinho, possibilitar o usuário finalizar a compra&lt;br&gt;&lt;/font&gt;" style="text;html=1;align=center;verticalAlign=middle;whiteSpace=wrap;rounded=0;" parent="1" vertex="1">
          <mxGeometry x="510" y="630" width="140" height="30" as="geometry" />
        </mxCell>
      </root>
    </mxGraphModel>
  </diagram>
</mxfile>
